<svg xmlns="http://www.w3.org/2000/svg" viewBox="0 0 64 64" fill="none">
  <defs>
    <linearGradient id="bg" x1="0" y1="0" x2="0" y2="64" gradientUnits="userSpaceOnUse">
      <stop stop-color="#2a3f33"/>
      <stop offset="1" stop-color="#1c2b23"/>
    </linearGradient>
    <linearGradient id="cup" x1="16" y1="22" x2="44" y2="44" gradientUnits="userSpaceOnUse">
      <stop stop-color="#fafafa"/>
      <stop offset="1" stop-color="#e8e5e0"/>
    </linearGradient>
    <linearGradient id="steam" x1="22" y1="12" x2="38" y2="28" gradientUnits="userSpaceOnUse">
      <stop stop-color="#a8c8a8" stop-opacity="0.9"/>
      <stop offset="1" stop-color="#7da87a" stop-opacity="0.5"/>
    </linearGradient>
  </defs>
  <rect width="64" height="64" rx="14" fill="url(#bg)"/>
  <path d="M18 22h24a2 2 0 0 1 2 2v12a8 8 0 0 1-8 8H24a8 8 0 0 1-8-8V24a2 2 0 0 1 2-2Z" fill="url(#cup)"/>
  <path d="M44 26h4a4 4 0 0 1 0 8h-4" stroke="url(#cup)" stroke-width="3" stroke-linecap="round"/>
  <path d="M25 50h10" stroke="#c9a96e" stroke-width="2" stroke-linecap="round"/>
  <path d="M22 14c0 3-2 4-2 7s2 4 2 7" stroke="url(#steam)" stroke-width="2.5" stroke-linecap="round" fill="none"/>
  <path d="M30 14c0 3-2 4-2 7s2 4 2 7" stroke="url(#steam)" stroke-width="2.5" stroke-linecap="round" fill="none"/>
  <path d="M38 14c0 3-2 4-2 7s2 4 2 7" stroke="url(#steam)" stroke-width="2.5" stroke-linecap="round" fill="none"/>
</svg>
